<?xml version="1.0" encoding="UTF-8"?>
<svg version="1.1" xmlns="http://www.w3.org/2000/svg" width="396" height="314">
<path d="M0 0 C1.08950455 1.02337715 1.08950455 1.02337715 2.20101929 2.06742859 C5.65420254 4.45169769 7.64888031 4.53341992 11.81884766 4.59692383 C12.81756393 4.61948494 12.81756393 4.61948494 13.8364563 4.64250183 C16.02926634 4.68545293 18.22086581 4.69826623 20.4140625 4.70703125 C21.94998609 4.72244226 23.48590533 4.7382931 25.02182007 4.75456238 C28.24137306 4.78299823 31.46050382 4.79443053 34.68017578 4.79614258 C38.77986786 4.80130643 42.87620056 4.86613453 46.97501564 4.94643116 C50.14957729 4.99877857 53.32334914 5.00970375 56.49830246 5.00964928 C58.00769958 5.01616058 59.5171144 5.03720363 61.02608109 5.07383156 C70.6355037 5.28701927 76.66265522 4.01922438 83.82225037 -2.82752991 C84.54090775 -3.54444504 85.25956512 -4.26136017 86 -5 C105.99336417 -20.07452213 131.11719422 -25.12168825 155.625 -22.4375 C179.99729462 -18.48598284 203.26596071 -6.65326212 218.203125 13.390625 C233.92261841 36.21806326 241.48566275 61.74391163 237.0625 89.5 C229.12312408 126.62496908 211.47373341 161.98843533 185.25 189.44140625 C182.59327918 192.4384775 182.59327918 192.4384775 181 196 C181.7369707 198.57656446 181.7369707 198.57656446 183.21875 201.2265625 C183.73663086 202.25031982 184.25451172 203.27407715 184.78808594 204.32885742 C185.6354834 205.960448 185.6354834 205.960448 186.5 207.625 C190.36245098 215.34822651 194.04394501 222.97668586 196.75 231.1875 C197.10868164 232.25315186 197.10868164 232.25315186 197.47460938 233.34033203 C198.72714442 237.31664904 199.40902438 240.83649808 199 245 C197.0625 247.4375 197.0625 247.4375 194 250 C193.32195312 250.61617188 192.64390625 251.23234375 191.9453125 251.8671875 C188.58228251 254.76474621 185.44616042 257.45897853 180.9375 258.0625 C177.85503598 257.82061651 176.96080879 256.96121213 174.72265625 254.74609375 C172.68810674 252.23240604 170.80214586 249.68404702 169 247 C168.608125 248.216875 168.21625 249.43375 167.8125 250.6875 C166.08439372 255.32869973 163.52209191 258.73895404 159 261 C156.07066233 261.09341082 153.16525291 261.12573748 150.23583984 261.11352539 C149.32846573 261.11367142 148.42109161 261.11381744 147.48622131 261.1139679 C144.47776932 261.11326951 141.46937872 261.10548054 138.4609375 261.09765625 C136.37871332 261.09579181 134.29648869 261.09436803 132.21426392 261.09336853 C126.72663162 261.08954541 121.23902567 261.07971686 115.75140381 261.06866455 C110.15458533 261.05844602 104.55776261 261.05386996 98.9609375 261.04882812 C87.97394674 261.03809443 76.98697556 261.02102045 66 261 C65.86600296 261.74475586 65.73200592 262.48951172 65.59394836 263.25683594 C65.41639511 264.23942383 65.23884186 265.22201172 65.0559082 266.234375 C64.79303764 267.69182129 64.79303764 267.69182129 64.52485657 269.17871094 C63.84738955 272.82033495 63.06842504 276.40132748 62.1875 280 C61.89230469 281.258125 61.59710938 282.51625 61.29296875 283.8125 C59.76962213 287.56794061 58.66756523 288.42113784 55 290 C50.28169575 291.41462757 45.57328539 291.18413745 40.6875 291.1875 C39.76259766 291.19974609 38.83769531 291.21199219 37.88476562 291.22460938 C25.91273089 291.2501361 25.91273089 291.2501361 21.41162109 287.77294922 C19.55036936 285.43527885 19.08553417 283.3592435 18.39453125 280.45703125 C18.13349609 279.38388672 17.87246094 278.31074219 17.60351562 277.20507812 C17.34248047 276.08552734 17.08144531 274.96597656 16.8125 273.8125 C16.40354492 272.11577148 16.40354492 272.11577148 15.98632812 270.38476562 C15.31464606 267.5919823 14.65296688 264.79720748 14 262 C12.84821259 261.99635437 11.69642517 261.99270874 10.50973511 261.98895264 C-0.34907964 261.95199843 -11.20761091 261.89422087 -22.06620979 261.81609726 C-27.64864395 261.77660183 -33.23091987 261.74442336 -38.81347656 261.72900391 C-44.2017972 261.71385112 -49.58968288 261.67942959 -54.97780991 261.63169098 C-57.03263441 261.61686305 -59.087521 261.60895818 -61.14239883 261.60811615 C-64.02264941 261.60574904 -66.90169548 261.57868954 -69.78173828 261.54589844 C-70.62978531 261.5509288 -71.47783234 261.55595917 -72.35157776 261.56114197 C-77.68794676 261.46725319 -80.77109514 260.55329194 -85 257 C-86.4609375 254.640625 -86.4609375 254.640625 -87.375 252.25 C-87.69210938 251.45078125 -88.00921875 250.6515625 -88.3359375 249.828125 C-88.55507812 249.22484375 -88.77421875 248.6215625 -89 248 C-89.4846875 248.6496875 -89.969375 249.299375 -90.46875 249.96875 C-91.47421875 251.22171875 -91.47421875 251.22171875 -92.5 252.5 C-93.47453125 253.75296875 -93.47453125 253.75296875 -94.46875 255.03125 C-97.341569 257.26566478 -99.31003547 257.67708235 -102.93994141 257.46191406 C-106.62046942 256.63665227 -109.11569037 254.53232525 -111.9375 252.125 C-112.80084961 251.43470703 -112.80084961 251.43470703 -113.68164062 250.73046875 C-117.8139881 247.37202381 -117.8139881 247.37202381 -119 245 C-118.95595617 238.22926186 -117.37468162 232.19767235 -114.9375 225.9375 C-114.63239502 225.13038574 -114.32729004 224.32327148 -114.01293945 223.49169922 C-111.25408074 216.34251113 -108.05909258 209.42260295 -104.69921875 202.5390625 C-103.34521522 199.71899997 -102.1110962 196.9215626 -101 194 C-101.52207031 193.51273438 -102.04414062 193.02546875 -102.58203125 192.5234375 C-132.70728841 163.50611449 -157.24766167 116.55939891 -158.28100586 74.39819336 C-158.55720477 50.07770172 -149.98662954 27.34792812 -134 9 C-133.22398437 8.02160156 -132.44796875 7.04320313 -131.6484375 6.03515625 C-129.04863292 2.91371123 -126.05880892 0.42431754 -122.8125 -2 C-121.94842529 -2.64835815 -121.94842529 -2.64835815 -121.06689453 -3.30981445 C-119.38796046 -4.55444498 -117.69774746 -5.78119824 -116 -7 C-115.20722656 -7.57105469 -114.41445312 -8.14210938 -113.59765625 -8.73046875 C-78.2113043 -31.92749736 -31.6646528 -26.07319779 0 0 Z " fill="#D1CFCF" transform="translate(158,23)"/>
<path d="M0 0 C18.47142269 16.17543976 29.73757645 38.82464779 32.625 63.125 C35.21715533 105.83289 13.50275531 151.84348249 -14.296875 183.46875 C-22.03157843 192.11490784 -22.03157843 192.11490784 -26.375 195.125 C-27.00148438 194.28195313 -27.62796875 193.43890625 -28.2734375 192.5703125 C-29.09887324 191.46347821 -29.92439876 190.35671086 -30.75 189.25 C-31.1625 188.69441406 -31.575 188.13882813 -32 187.56640625 C-33.7004573 185.2899876 -35.3629119 183.1370881 -37.375 181.125 C-37.62833309 178.33720875 -37.62833309 178.33720875 -37.63328552 174.70552063 C-37.63696123 174.03904815 -37.64063693 173.37257568 -37.64442402 172.68590707 C-37.65444203 170.44197648 -37.65024571 168.19829187 -37.64624023 165.9543457 C-37.65062526 164.34966263 -37.65592659 162.74498184 -37.66207886 161.14030457 C-37.67359989 157.67864399 -37.67903983 154.21704481 -37.67996025 150.75536537 C-37.68189757 145.27982112 -37.6999335 139.80440401 -37.72071838 134.3289032 C-37.76996025 120.72371914 -37.80077133 107.11850035 -37.82202148 93.51324463 C-37.8385487 82.94999725 -37.8613877 72.38685826 -37.90504223 61.82368344 C-37.92681046 56.38300534 -37.93487709 50.94253313 -37.93264949 45.50181448 C-37.9343189 42.11115028 -37.94838448 38.72061982 -37.96586227 35.33000374 C-37.97145153 33.76070887 -37.97195646 32.19138614 -37.96692467 30.62208939 C-37.96076141 28.4742211 -37.9730533 26.32719296 -37.98973083 24.17939758 C-37.99174216 22.97905538 -37.99375349 21.77871317 -37.99582577 20.54199696 C-38.45428872 16.41047536 -39.45322775 13.80958917 -41.375 10.125 C-46.37039403 6.33452937 -50.44849287 5.53671665 -56.69702148 5.57910156 C-57.49783646 5.56876389 -58.29865143 5.55842621 -59.12373352 5.54777527 C-61.74806208 5.51847978 -64.37161495 5.51685095 -66.99609375 5.515625 C-68.8245642 5.50063436 -70.65302115 5.48390535 -72.48146057 5.46551514 C-77.27689251 5.4219286 -82.07214181 5.40186184 -86.86773682 5.38677979 C-91.7680538 5.3671773 -96.66817444 5.32521082 -101.56835938 5.28515625 C-111.17051223 5.20994839 -120.77262093 5.1595999 -130.375 5.125 C-95.22038116 -30.23902296 -38.10919311 -32.07806964 0 0 Z " fill="#BCB5B5" transform="translate(363.375,22.875)"/>
<path d="M0 0 C1.67186321 1.66145387 3.33906816 3.32761817 5 5 C3.99046265 5.00142502 2.98092529 5.00285004 1.9407959 5.00431824 C-7.59299282 5.02101861 -17.12635637 5.06388493 -26.65991974 5.13209057 C-31.56077645 5.16631921 -36.4613228 5.19146413 -41.36230469 5.19555664 C-46.0958617 5.19984844 -50.82871908 5.22838409 -55.5620575 5.27343178 C-57.3640281 5.28637865 -59.16608255 5.29072445 -60.96809387 5.28615379 C-72.9215765 4.9307954 -72.9215765 4.9307954 -83.71276855 9.34516907 C-87.03688907 13.61857109 -87.24513044 18.60956782 -87.21791077 23.82888794 C-87.21735308 24.49116673 -87.21679539 25.15344553 -87.2162208 25.83579338 C-87.212171 28.04187228 -87.19399667 30.24760735 -87.17602539 32.45361328 C-87.17058627 34.04091592 -87.16615679 35.62822229 -87.16265869 37.2155304 C-87.15383894 40.62857024 -87.13956938 44.04152916 -87.12156868 47.45453262 C-87.09480192 52.86032787 -87.0907084 58.26599146 -87.09165955 63.67184448 C-87.09173524 65.52575111 -87.09180096 67.37965775 -87.09185696 69.23356438 C-87.09190664 70.16189134 -87.09195633 71.09021831 -87.09200752 72.0466764 C-87.09107326 84.62568962 -87.0723572 97.20436674 -87.00366211 109.78320312 C-86.95745746 118.27649459 -86.94341029 126.76919188 -86.96551126 135.26258838 C-86.97586342 139.75147589 -86.96994555 144.238999 -86.92436409 148.72769547 C-86.88160004 152.95546214 -86.8812701 157.18118336 -86.91221619 161.40903282 C-86.91613543 162.95209289 -86.90493562 164.49528512 -86.87669182 166.03809166 C-86.67985978 177.47361013 -89.20403182 183.77036802 -97 192 C-97.99038188 193.00952649 -98.98562632 194.01458332 -100 195 C-130.59853236 166.19357257 -156.60037904 119.64402214 -158.21484375 77.09765625 C-158.83721196 51.70457387 -150.7609963 28.2366724 -134 9 C-133.22398437 8.02160156 -132.44796875 7.04320313 -131.6484375 6.03515625 C-129.04863292 2.91371123 -126.05880892 0.42431754 -122.8125 -2 C-121.94842529 -2.64835815 -121.94842529 -2.64835815 -121.06689453 -3.30981445 C-119.38796046 -4.55444498 -117.69774746 -5.78119824 -116 -7 C-115.20722656 -7.57105469 -114.41445312 -8.14210938 -113.59765625 -8.73046875 C-78.942218 -31.44835709 -30.7928269 -26.83290482 0 0 Z " fill="#BCB5B5" transform="translate(158,23)"/>
<path d="M0 0 C1.33353871 0.97176682 2.64602907 1.97298535 3.9375 3 C4.76765625 3.61230469 5.5978125 4.22460938 6.453125 4.85546875 C12.8629986 10.38852001 17.41428651 18.75916481 18.12097168 27.18843079 C18.39267214 35.77795951 16.39490531 43.66924768 14.28125 51.91796875 C13.89572866 53.46198532 13.51135499 55.00628884 13.12805176 56.55085754 C12.11661645 60.61352069 11.08987674 64.67215922 10.05969238 68.73010254 C9.04368202 72.74291488 8.04178807 76.75924199 7.0390625 80.77539062 C5.85329606 85.52322606 4.66398064 90.27004018 3.45751953 95.01266479 C1.67603165 102.02190382 -0.08654648 109.03186868 -1.72602081 116.07591152 C-2.42328125 119.07006997 -3.13413395 122.06093535 -3.84544373 125.05178261 C-4.17436241 126.45377749 -4.49610333 127.85747819 -4.81019592 129.26286888 C-5.24153593 131.19148471 -5.69923535 133.11414861 -6.15820312 135.03637695 C-6.53096375 136.66274834 -6.53096375 136.66274834 -6.91125488 138.32197571 C-8.34921878 141.6669647 -9.81312152 142.48407561 -13.0625 144 C-17.68953616 145.55355022 -22.54818456 145.18417803 -27.375 145.1875 C-28.29990234 145.19974609 -29.22480469 145.21199219 -30.17773438 145.22460938 C-42.00653755 145.2498307 -42.00653755 145.2498307 -46.63459778 141.84260559 C-48.69107588 139.18886783 -49.15467137 136.60251789 -49.9284668 133.3425293 C-50.0916188 132.66851578 -50.25477081 131.99450226 -50.42286682 131.30006409 C-50.96247738 129.06038027 -51.48690972 126.81741279 -52.01171875 124.57421875 C-52.3907842 122.99102619 -52.7709158 121.40808856 -53.15205383 119.82539368 C-54.15936354 115.63211413 -55.15443163 111.43602981 -56.14630127 107.23907471 C-57.70769191 100.63974849 -59.28582306 94.04440712 -60.86600113 87.44955826 C-61.2550688 85.82326214 -61.64303496 84.19670212 -62.02990341 82.56988144 C-64.04086997 74.11490186 -66.10476911 65.68620231 -68.42822266 57.31103516 C-68.61679872 56.62708711 -68.80537477 55.94313906 -68.99966526 55.23846531 C-69.87571343 52.06960947 -70.76848039 48.90842624 -71.69181824 45.75285339 C-74.40772649 36.07436226 -76.11863828 26.4173543 -71.3203125 17.15625 C-70.69769531 16.08890625 -70.69769531 16.08890625 -70.0625 15 C-69.40894531 13.83984375 -69.40894531 13.83984375 -68.7421875 12.65625 C-62.76137231 2.85163494 -53.20196038 -2.86859534 -42.3203125 -6.1171875 C-28.4343401 -9.38217961 -12.05340017 -7.79809469 0 0 Z " fill="#BDB6B6" transform="translate(226.0625,169)"/>
<path d="M0 0 C9.05545813 4.89784316 15.34685682 10.72355548 19.58447266 20.20288086 C19.94798828 20.96084961 20.31150391 21.71881836 20.68603516 22.49975586 C21.84578979 25.98910458 21.95997026 29.09265045 22.02197266 32.76538086 C22.08191406 34.71637695 22.08191406 34.71637695 22.14306641 36.70678711 C21.58447266 40.20288086 21.58447266 40.20288086 19.57275391 42.63256836 C15.79324956 44.61866084 12.50359996 44.74837862 8.33447266 44.76538086 C-16.73938843 45.59828067 -37.27930851 53.24351973 -55.07958984 71.56225586 C-58.3226821 75.22836015 -61.20879956 79.14110722 -64.01708984 83.14819336 C-66.80050228 85.53268024 -68.70131624 85.91182834 -72.35107422 85.67797852 C-76.02861687 84.83165661 -78.52836034 82.73764378 -81.35302734 80.32788086 C-81.92859375 79.86768555 -82.50416016 79.40749023 -83.09716797 78.93334961 C-87.22951544 75.57490467 -87.22951544 75.57490467 -88.41552734 73.20288086 C-88.37149279 66.43356959 -86.79285174 60.3985971 -84.35302734 54.14038086 C-84.04139648 53.32601562 -83.72976562 52.51165039 -83.40869141 51.67260742 C-82.4350718 49.17219726 -81.4333319 46.68560938 -80.41552734 44.20288086 C-80.10695801 43.44958496 -79.79838867 42.69628906 -79.48046875 41.92016602 C-74.85332704 30.8714844 -68.88200007 21.54041962 -61.41552734 12.20288086 C-60.80966797 11.41268555 -60.20380859 10.62249023 -59.57958984 9.80834961 C-42.11899189 -11.78317029 -23.14307532 -11.87612467 0 0 Z " fill="#FEFEFE" transform="translate(127.41552734375,194.797119140625)"/>
<path d="M0 0 C8.98515588 6.60223133 15.75883658 13.72542196 22 23 C22.69826904 24.00027222 22.69826904 24.00027222 23.41064453 25.02075195 C27.13965821 30.44179815 30.19927419 35.98805903 33 41.9375 C33.42716309 42.84121338 33.85432617 43.74492676 34.29443359 44.67602539 C37.0615596 50.65960844 39.51502656 56.69179582 41.625 62.9375 C41.8725 63.66380615 42.12 64.3901123 42.375 65.13842773 C43.67065832 69.1897417 44.43256595 72.74956931 44 77 C42.0625 79.4375 42.0625 79.4375 39 82 C38.32195312 82.61617188 37.64390625 83.23234375 36.9453125 83.8671875 C33.61980584 86.73241642 30.44485936 89.45960189 26 90.125 C22.90059878 89.8527971 21.9400062 88.94151865 19.67578125 86.734375 C17.33019702 83.89641193 15.164937 80.97727422 13 78 C1.0129554 62.74376142 -19.72578207 51.42330097 -39 49 C-43.67466912 48.79879406 -48.3545632 48.70434356 -53.03320312 48.65820312 C-57.30164845 48.53359814 -60.30251108 48.35393669 -64.1484375 46.40234375 C-67.9361384 41.48792169 -66.62336011 34.8679764 -66 29 C-64.09106833 19.81954572 -57.96830337 12.62888616 -50.5078125 7.1796875 C-48.05370422 5.65829327 -45.57702657 4.30086325 -43 3 C-42.31679688 2.63390625 -41.63359375 2.2678125 -40.9296875 1.890625 C-36.12258914 -0.48550727 -31.10747215 -1.90540231 -25.9375 -3.25 C-24.9462915 -3.51321045 -24.9462915 -3.51321045 -23.93505859 -3.78173828 C-14.73828719 -6.04047445 -8.01539804 -5.19307479 0 0 Z " fill="#FEFEFE" transform="translate(313,191)"/>
<path d="M0 0 C7.59663297 5.65330825 12.10707272 12.80999317 14.4375 21.9375 C14.52 22.948125 14.6025 23.95875 14.6875 25 C14.75066406 25.7734375 14.81382812 26.546875 14.87890625 27.34375 C15.10916814 32.27581106 14.92463726 36.20792474 12.1640625 40.3984375 C7.65391825 45.2903929 1.85609983 48.75078428 -4.7890625 49.2734375 C-13.0099725 49.55756805 -19.7242515 49.58474045 -26.3125 44 C-31.03851069 39.42274994 -32.4760136 35.52403609 -32.625 29 C-32.47763156 17.93508596 -29.02904743 11.02027764 -21.53125 2.99609375 C-15.47700927 -2.45059113 -7.58123903 -2.28867593 0 0 Z " fill="#343434" transform="translate(282.3125,129)"/>
<path d="M0 0 C7.59663297 5.65330825 12.10707272 12.80999317 14.4375 21.9375 C14.52 22.948125 14.6025 23.95875 14.6875 25 C14.75066406 25.7734375 14.81382812 26.546875 14.87890625 27.34375 C15.10916814 32.27581106 14.92463726 36.20792474 12.1640625 40.3984375 C7.65391825 45.2903929 1.85609983 48.75078428 -4.7890625 49.2734375 C-13.0099725 49.55756805 -19.7242515 49.58474045 -26.3125 44 C-31.03851069 39.42274994 -32.4760136 35.52403609 -32.625 29 C-32.47763156 17.93508596 -29.02904743 11.02027764 -21.53125 2.99609375 C-15.47700927 -2.45059113 -7.58123903 -2.28867593 0 0 Z " fill="#343434" transform="translate(134.3125,129)"/>
</svg>
